<?xml version="1.0" encoding="UTF-8"?>
<svg version="1.1" xmlns="http://www.w3.org/2000/svg" width="230" height="266">
<path d="M0 0 C4.01955795 1.60782318 7.41967239 3.2878723 11.140625 5.44140625 C11.70827576 5.76914536 12.27592651 6.09688446 12.86077881 6.43455505 C14.05165144 7.12300971 15.24160078 7.8130637 16.43066406 8.50463867 C18.25628193 9.56615266 20.08491123 10.62232291 21.9140625 11.67773438 C30.85086462 16.85086462 30.85086462 16.85086462 32 18 C32.09588124 19.55620396 32.12188033 21.11676454 32.12025452 22.67591858 C32.12162918 23.68699173 32.12300385 24.69806488 32.12442017 25.73977661 C32.11902725 27.41751663 32.11902725 27.41751663 32.11352539 29.12915039 C32.11367142 30.29972488 32.11381744 31.47029938 32.1139679 32.67634583 C32.11338895 35.89520943 32.10835991 39.11403004 32.10139394 42.33288503 C32.09515957 45.693474 32.09455654 49.05406373 32.09336853 52.41465759 C32.09025546 58.78242342 32.0820424 65.15017216 32.07201904 71.51793045 C32.06085715 78.76569729 32.05534726 86.01346493 32.05032361 93.26123822 C32.03985977 108.17416835 32.0222608 123.08708247 32 138 C32.71953857 137.58488159 33.43907715 137.16976318 34.18041992 136.74206543 C42.61169434 131.87786865 42.61169434 131.87786865 51.04296875 127.01367188 C51.61469252 126.6838308 52.18641628 126.35398973 52.77546501 126.01415348 C55.69561242 124.32945133 58.61576284 122.64475439 61.53591919 120.96006775 C62.6650473 120.30865311 63.79417542 119.65723846 64.95751953 118.98608398 C65.96412628 118.40535629 66.97073303 117.8246286 68.00784302 117.2263031 C71.16935953 115.40228926 74.33077907 113.57810742 77.4921875 111.75390625 C81.85065388 109.23930564 86.21012191 106.72645339 90.5703125 104.21484375 C91.65481689 103.589729 92.73932129 102.96461426 93.85668945 102.32055664 C96.01855638 101.0749841 98.18114321 99.83066015 100.34448242 98.58764648 C105.85394163 95.41655061 111.33882235 92.21075263 116.79296875 88.9453125 C117.88786621 88.29377197 118.98276367 87.64223145 120.11083984 86.97094727 C122.1960732 85.72798027 124.2761337 84.47628047 126.35009766 83.21459961 C127.28257324 82.6603833 128.21504883 82.10616699 129.17578125 81.53515625 C129.98958252 81.044104 130.80338379 80.55305176 131.6418457 80.04711914 C134.36097013 78.83971416 136.05422068 78.66183882 139 79 C140.95361328 79.80688477 140.95361328 79.80688477 142.8203125 80.94140625 C143.51584229 81.35712891 144.21137207 81.77285156 144.92797852 82.20117188 C145.65299561 82.65041016 146.3780127 83.09964844 147.125 83.5625 C147.87257568 84.01560547 148.62015137 84.46871094 149.39038086 84.93554688 C151.60018468 86.27992145 153.80009407 87.63951175 156 89 C157.18570572 89.71826106 158.37185535 90.43579021 159.55859375 91.15234375 C165.13629713 94.58310279 165.13629713 94.58310279 167 96 C167 96.66 167 97.32 167 98 C165.93193115 98.60920288 165.93193115 98.60920288 164.84228516 99.23071289 C148.61238092 108.49029763 132.40519854 117.78775023 116.2265625 127.13671875 C112.96475993 129.0203505 109.70138156 130.90122321 106.4375 132.78125 C95.98287049 138.80439739 85.53951558 144.84522445 75.125 150.9375 C65.86008899 156.3562367 56.55270922 161.69770211 47.22665405 167.01016235 C37.80494795 172.37802396 28.42205319 177.80951546 19.07617188 183.30859375 C12.77616225 187.00495914 6.42008982 190.49813282 0 194 C0 129.98 0 65.96 0 0 Z M119 92.875 C116.63660973 96.5677973 116.09396799 97.71693958 117 102 C119.95497371 108.45357974 119.95497371 108.45357974 125 113 C130.31504115 113.887713 134.26776905 113.27271905 138.875 110.4375 C142.89642051 107.38065301 145.24740814 105.18452173 146 100 C144.06367495 94.47473548 141.95234398 89.30156265 137 86 C129.77278669 85.14973961 123.92161332 87.59191225 119 92.875 Z M105 100 C104.58390728 102.32300384 104.58390728 102.32300384 104.70703125 105.0078125 C104.71669922 105.99394531 104.72636719 106.98007813 104.73632812 107.99609375 C104.76146484 109.02863281 104.78660156 110.06117188 104.8125 111.125 C104.82603516 112.16527344 104.83957031 113.20554687 104.85351562 114.27734375 C104.88894772 116.85207627 104.93834779 119.4257833 105 122 C104.31224487 121.49231079 104.31224487 121.49231079 103.6105957 120.97436523 C101.52227968 119.44627128 99.41793599 117.94190639 97.3125 116.4375 C96.59126953 115.90447266 95.87003906 115.37144531 95.12695312 114.82226562 C90.96486283 111.72587643 90.96486283 111.72587643 85.98046875 111.16015625 C85.32691406 111.43730469 84.67335938 111.71445313 84 112 C88.06399139 116.41141014 92.54251848 119.61739826 97.5625 122.875 C98.31724609 123.38546875 99.07199219 123.8959375 99.84960938 124.421875 C100.58115234 124.89882812 101.31269531 125.37578125 102.06640625 125.8671875 C102.72584229 126.30144043 103.38527832 126.73569336 104.06469727 127.18310547 C105.98744239 128.1706241 105.98744239 128.1706241 108.18334961 127.82080078 C108.78284424 127.54993652 109.38233887 127.27907227 110 127 C111.1238497 123.62845091 110.95261747 121.54626946 110.66015625 118.01953125 C110.56669922 116.85615234 110.47324219 115.69277344 110.37695312 114.49414062 C110.27318359 113.27919922 110.16941406 112.06425781 110.0625 110.8125 C109.96259766 109.58595703 109.86269531 108.35941406 109.75976562 107.09570312 C109.51198235 104.06330783 109.25850466 101.03149707 109 98 C107.53774984 97.90754997 107.53774984 97.90754997 105 100 Z M74.4375 118.5 C73.963125 118.995 73.48875 119.49 73 120 C74.75605491 123.15430416 76.53224597 126.29679964 78.3125 129.4375 C78.81201172 130.33533203 79.31152344 131.23316406 79.82617188 132.15820312 C80.31279297 133.01220703 80.79941406 133.86621094 81.30078125 134.74609375 C81.74591064 135.53685303 82.19104004 136.3276123 82.6496582 137.14233398 C83.94676696 139.30527528 83.94676696 139.30527528 87 140 C87.66 139.67 88.32 139.34 89 139 C87.26153247 134.04288402 84.60348281 129.68611031 81.9375 125.1875 C81.47794922 124.39923828 81.01839844 123.61097656 80.54492188 122.79882812 C80.10599609 122.05439453 79.66707031 121.30996094 79.21484375 120.54296875 C78.61337524 119.5223938 78.61337524 119.5223938 77.99975586 118.48120117 C77.66983643 117.99240479 77.33991699 117.5036084 77 117 C75.75923698 116.88457803 75.75923698 116.88457803 74.4375 118.5 Z M43 136 C43.50155186 141.32498673 46.34435727 145.35205395 49.0625 149.8125 C49.53494141 150.60076172 50.00738281 151.38902344 50.49414062 152.20117188 C51.65631315 154.13812608 52.82504417 156.07078295 54 158 C61.6793328 155.09282401 69.70842179 151.25128733 74 144 C74.21892335 138.08906947 71.56137954 133.54880253 68 129 C58.86107419 124.4305371 50.46692612 131.24156059 43 136 Z " fill="#F8941C" transform="translate(0,72)"/>
<path d="M0 0 C3.54434427 1.34455698 6.80799193 2.91228344 10.11328125 4.765625 C11.10126709 5.31855225 12.08925293 5.87147949 13.10717773 6.44116211 C14.16493408 7.03807861 15.22269043 7.63499512 16.3125 8.25 C17.42117432 8.87334229 18.52984863 9.49668457 19.67211914 10.13891602 C29.13940877 15.47873305 38.53299965 20.94123025 47.91015625 26.4375 C54.21570419 30.1321331 60.54294436 33.78852681 66.875 37.4375 C68.49523071 38.37130493 68.49523071 38.37130493 70.14819336 39.32397461 C72.33796334 40.58576826 74.52782355 41.84740534 76.71777344 43.10888672 C83.22871257 46.86028024 89.73663194 50.61690994 96.24511719 54.37255859 C101.68585336 57.51182246 107.12731477 60.64981497 112.5703125 63.78515625 C123.02206199 69.80747329 133.46299548 75.84669337 143.875 81.9375 C152.55262662 87.01275369 161.26621513 92.02230332 170 97 C190.11696219 108.46768682 210.07998869 120.19400998 230 132 C227.14693165 135.08320167 224.35322759 137.13380708 220.68359375 139.1640625 C219.67232422 139.72867188 218.66105469 140.29328125 217.61914062 140.875 C216.56919922 141.4525 215.51925781 142.03 214.4375 142.625 C212.35237697 143.78297658 210.26772025 144.94179332 208.18359375 146.1015625 C207.26118896 146.61025879 206.33878418 147.11895508 205.38842773 147.64306641 C203.54845445 148.68840746 201.76077248 149.82615168 200 151 C195.65104527 150.41945659 192.01099563 147.94149808 188.25 145.8125 C187.46560547 145.37252686 186.68121094 144.93255371 185.87304688 144.47924805 C177.30501637 139.65016092 168.82256759 134.67331345 160.3359375 129.703125 C153.94718008 125.96365411 147.53883924 122.25874966 141.125 118.5625 C140.04541016 117.94028564 138.96582031 117.31807129 137.85351562 116.67700195 C135.6631748 115.41488483 133.47274498 114.15292215 131.28222656 112.89111328 C125.85340058 109.76319852 120.42680719 106.63141552 115 103.5 C112.83334417 102.24998121 110.6666775 100.99998122 108.5 99.75 C95.5 92.25 82.5 84.75 69.5 77.25 C68.42733887 76.63116943 67.35467773 76.01233887 66.24951172 75.37475586 C64.08442929 74.12564482 61.91939018 72.87645871 59.75439453 71.62719727 C49.9532751 65.96964839 49.9532751 65.96964839 40.14208984 60.32958984 C37.97293232 59.0733523 35.81416266 57.79899571 33.66650391 56.50634766 C28.2287603 53.26063995 22.95546049 50.50242364 17.03125 48.24609375 C3.91684298 42.83477264 3.91684298 42.83477264 0 37 C-3.51143821 25.41275159 -1.41681981 11.80864818 0 0 Z " fill="#F7941C" transform="translate(0,0)"/>
<path d="M0 0 C2.1875 2.1875 2.1875 2.1875 4 5 C4.8971875 6.2375 4.8971875 6.2375 5.8125 7.5 C7 10 7 10 7.125 12.4375 C5.04566396 17.17376542 0.94606592 20.16319166 -3.734375 22.17578125 C-4.48203125 22.44777344 -5.2296875 22.71976563 -6 23 C-7.53641144 20.59205692 -9.05396395 18.17531353 -10.5625 15.75 C-11.21895508 14.72712891 -11.21895508 14.72712891 -11.88867188 13.68359375 C-12.29794922 13.01972656 -12.70722656 12.35585937 -13.12890625 11.671875 C-13.51119385 11.0644043 -13.89348145 10.45693359 -14.28735352 9.83105469 C-15.20043143 7.48501687 -14.90127289 6.31773367 -14 4 C-9.98903558 0.89844279 -5.02905427 -1.02867019 0 0 Z " fill="#F8941C" transform="translate(63,203)"/>
<path d="M0 0 C2.25 2.3125 2.25 2.3125 4 5 C4.433125 5.61875 4.86625 6.2375 5.3125 6.875 C6.41594451 10.28564667 5.97640048 12.58259831 5 16 C2.06320813 18.66360193 -0.16924595 19.79231149 -4 20.75 C-8.12973084 19.71756729 -9.48110302 17.62429493 -11.7890625 14.15625 C-13.423351 11.24616209 -14.21951658 9.36592086 -14 6 C-10.54641904 0.02963939 -6.67121898 -1.90606257 0 0 Z " fill="#F7941C" transform="translate(135,162)"/>
</svg>
